<?xml version="1.0" encoding="UTF-8"?>
<svg id="Layer_2" data-name="Layer 2" xmlns="http://www.w3.org/2000/svg" viewBox="0 0 197.4094 193.7858">
  <defs>
    <style>
      .cls-1 {
        fill: #f1b940;
      }

      .cls-2 {
        fill: #d5a53f;
      }

      .cls-3 {
        fill: #cda03f;
      }
    </style>
  </defs>
  <g id="Layer_3" data-name="Layer 3">
    <path class="cls-1" d="M96.921,63.5894c-4.2099,12.3392-9.0249,24.4482-15.2898,35.9962-.4867,.8971-.342,1.4753,.2702,2.1586,.8979,1.0021,1.6172,2.1845,2.6429,3.0409,3.2641,2.7255,4.1244,6.181,4.3663,10.168,.9418,15.522,2.1103,31.0318,3.249,46.5426,.7529,10.2564,1.5984,20.5067,2.4039,30.7597,.0618,.7864,.4268,1.6489-1.0987,1.517-11.0919-.9591-22.0047-2.6477-31.9392-7.7839-12.5796-6.5037-20.0594-16.4791-20.6457-30.1989-.5213-12.1985-.1094-24.4329-.1116-36.6525,.3511-.1568,.6323,.0368,.9073,.1902,10.2301,5.7068,20.6528,11.0987,30.7545,17.0173,1.1647,.6824,1.6038,1.3961,1.5816,2.6809-.0758,4.3887-.1143,8.7817,.0038,13.1689,.1517,5.6354,2.5956,8.7624,8.1897,10.701,1.5434,.5348,3.154,.8925,4.7261,1.355,1.2998,.3824,1.7359,.0063,1.613-1.3146-.6158-6.619-1.1504-13.2447-1.7373-19.8662-.8637-9.7442-1.832-19.481-2.5643-29.234-.1858-2.4748-.9726-3.9549-3.3798-5.2314-13.0045-6.8957-25.879-14.0128-38.8068-21.0396-.9109-.4951-1.4478-.9943-1.4433-2.1597,.0548-14.4871,.0017-28.9745,.0468-43.4617,.0196-6.265,1.043-12.3387,4.1157-18.0065,4.8454-8.9374,12.59-14.7814,22.2451-18.256,21.0749-7.5843,42.2787-7.5708,63.3683,.018,6.7291,2.4214,12.6575,6.1423,17.5283,11.2838,5.3816,5.6807,8.135,12.4214,8.6794,19.9402,.8842,12.2117,.2774,24.4489,.4008,36.6745,.0011,.1071-.0856,.2151-.1329,.3263-.5324,.2353-.8793-.1685-1.2486-.368-9.7384-5.2621-19.4394-10.5875-29.2214-15.7751-2.0968-1.112-2.9123-2.3761-2.768-4.7108,.2627-4.2496,.1815-8.5189-.1711-12.7818-.2784-3.366-1.9045-5.7774-4.9533-7.4132-3.949-2.1187-8.3133-2.8055-12.719-3.1461-7.0537-.5452-14.1013-.4921-21.0555,1.0379-1.677,.369-3.3086,.8821-4.8312,1.6277-3.4604,1.6945-5.5533,4.1999-5.7306,8.1171-.3634,8.0272,.0046,16.0518-.1355,24.076-.0145,.8326,.4369,1.2205,1.1097,1.5917,4.3885,2.4215,8.7855,4.8305,13.1282,7.3247,1.3389,.769,1.3208-.0547,1.5537-.8787,2.734-9.6721,5.4849-19.3398,8.2387-29.0068,.1803-.6328,.4205-1.2502,.6572-1.9461,.6958,.4587,.6771,1.0718,.835,1.5655,3.9457,12.3351,7.8838,24.6725,11.7619,37.0269,.3329,1.0605,.8908,1.6919,1.87,2.2256,14.2348,7.7575,28.4485,15.55,42.6786,23.3153,.7231,.3946,1.2107,.7014,1.2073,1.6656-.0536,14.926-.006,29.8523-.0792,44.7781-.0288,5.8701-.9468,11.599-3.6619,16.9816-4.6471,9.2124-12.4363,15.046-22.1693,18.8252-8.6933,3.3755-17.8104,4.907-27.1142,5.6625-1.4164,.1151-1.8046-.2443-1.6807-1.6052,.9032-9.9302,1.7129-19.8681,2.5944-29.8002,.9702-10.9311,1.9786-21.8592,2.9836-32.7875,.6775-7.3686,1.3841-14.7348,2.0589-22.1036,.0729-.7959,.4137-1.4071,.9721-1.9883,1.3787-1.4351,2.6638-2.9531,4.0745-4.3581,.7905-.7873,.9609-1.4307,.4061-2.4623-6.1029-11.348-10.8904-23.194-14.6944-35.4068-.0107-.0343-.1097-.0437-.4067-.1518,0,1.2874,.005,2.4982-.0008,3.7089-.0415,8.6532-.0831,17.3065-.1301,25.9597-.0089,1.638,.1001,3.0377,1.7714,4.2343,2.2128,1.5843,2.0622,4.0565,.0726,5.8791-1.9202,1.7591-5.091,1.7484-6.757-.0228-1.6101-1.7117-1.4227-4.8801,.6698-6.1574,1.4951-.9126,1.6616-1.9839,1.6443-3.4269-.0632-5.2674-.0378-10.5358-.0457-15.8038-.293-4.1197-.0252-8.245-.156-12.3653-.0152-.4803,.5506-1.2658-.5012-1.471Z"/>
    <path class="cls-1" d="M31.8835,167.0121c-9.5783-8.3075-17.186-18.0679-22.2439-29.3633C-7.3311,99.7499-1.8451,64.8252,25.7119,33.044c1.8826-2.1712,3.8633-4.2743,6.1457-6.0915,.7417-.0166,.7225,.3649,.4954,.8552-1.9612,14.6897-.4496,29.4392-.7865,44.1573-.0481,2.1016-.5357,3.5626-2.2763,4.9726-7.581,6.1415-15.0015,12.4616-22.55,18.6399-1.3184,1.079-1.1936,1.6106,.0448,2.6271,7.8397,6.4341,15.5973,12.9584,23.4269,19.4036,.9381,.7722,1.3175,1.531,1.3082,2.7117-.079,10.0342-.078,20.0689-.1233,30.1034-.0238,5.2699,.03,10.5329,.9621,15.7488,.1873,.4568,.2904,.8704-.4753,.8399Z"/>
    <path class="cls-1" d="M165.1162,26.4745c20.7019,18.8976,31.7447,41.9683,32.2748,69.2801,.5529,28.4907-11.3549,52.0877-32.2747,72.0593,2.2367-15.6431,.6203-31.1787,1-46.6676,.0419-1.7089,.4871-2.8465,1.8777-3.9835,7.7001-6.2961,15.2808-12.7239,22.9587-19.0449,1.1989-.987,1.1831-1.4666-.0231-2.4602-7.8256-6.4463-15.558-12.9946-23.3712-19.4547-1.0038-.83-1.3466-1.6799-1.3392-2.9019,.0654-10.7213,.0658-21.4429,.1038-32.1644,.0174-4.8929-.1398-9.7681-1.2068-14.6622Z"/>
    <path class="cls-2" d="M32.3529,27.8078c-.1651-.2851-.3303-.5702-.4954-.8552,.1396-.2714,.4672-.6678,.632-.5205,.4854,.4336,.1624,.9332-.1367,1.3758Z"/>
    <path class="cls-3" d="M31.8835,167.0121l.4753-.8399c.2831,.4378,.6393,.9267,.1454,1.3601-.1672,.1468-.4893-.246-.6208-.5201Z"/>
  </g>
</svg>